<svg width="100" height="100" viewBox="0 0 100 100" fill="none" xmlns="http://www.w3.org/2000/svg">
<g clip-path="url(#clip0)">
<path d="M51.2499 54.9999C66.4377 54.9999 78.7498 42.6877 78.7498 27.4999C78.7498 12.3121 66.4377 0 51.2499 0C36.0621 0 23.75 12.3121 23.75 27.4999C23.75 42.6877 36.0621 54.9999 51.2499 54.9999Z" fill="#FFCC68"/>
<path d="M95.3124 83.4376H87.9686V98.4376H95.3124C97.0311 98.4376 98.4374 97.0313 98.4374 95.3127V86.5625C98.4374 84.8437 97.0311 83.4376 95.3124 83.4376Z" fill="#F16051"/>
<path d="M95.3124 100H87.9686C87.031 100 86.406 99.375 86.406 98.4374V83.4374C86.406 82.4998 87.031 81.8748 87.9686 81.8748H95.3124C97.9687 81.8748 100 83.9061 100 86.5623V95.3122C100 97.9687 97.9687 100 95.3124 100ZM89.5312 96.875H95.3124C96.25 96.875 96.875 96.25 96.875 95.3124V86.5625C96.875 85.6249 96.25 84.9999 95.3124 84.9999H89.5312V96.875Z" fill="#193651"/>
<path d="M15.9374 98.4374V83.4376L1.56259 90.9375L15.9374 98.4374Z" fill="#FDBF5E"/>
<path d="M15.9374 100C15.6248 100 15.4687 100 15.1561 99.8437L0.781091 92.3438C0.312598 92.0312 0 91.5625 0 90.9375C0 90.3125 0.312598 89.8438 0.781292 89.5312L15.1563 82.0313C15.625 81.7187 16.25 81.875 16.7189 82.0313C17.1876 82.3439 17.5002 82.8126 17.5002 83.4376V98.4376C17.5002 98.9063 17.1876 99.5313 16.7189 99.8439C16.5624 100 16.25 100 15.9374 100ZM4.99995 90.9375L14.5312 95.9374V85.9375L4.99995 90.9375Z" fill="#193651"/>
<path d="M87.8125 83.4376H15.9374V98.4376H87.8125V83.4376Z" fill="#E1E6E9"/>
<path d="M87.9688 100H16.0937C15.1562 100 14.5312 99.375 14.5312 98.4374V83.4374C14.5312 82.4998 15.1562 81.8748 16.0937 81.8748H87.9688C88.9064 81.8748 89.5314 82.4998 89.5314 83.4374V98.4374C89.5312 99.375 88.7499 100 87.9688 100ZM17.5 96.875H86.2499V84.9999H17.5V96.875Z" fill="#193651"/>
<path d="M83.125 88.4375H20.625V93.4375H83.125V88.4375Z" fill="white"/>
<path d="M70.6249 72.1875H15.9374V83.2813H70.6249V72.1875Z" fill="#3F3F3F"/>
<path d="M70.6249 84.9999H15.9374C14.9998 84.9999 14.3749 84.375 14.3749 83.4374V72.3436C14.3749 71.406 14.9998 70.781 15.9374 70.781H70.6249C71.5625 70.781 72.1875 71.406 72.1875 72.3436V83.4374C72.1875 84.2187 71.5625 84.9999 70.6249 84.9999ZM17.5 81.875H69.0625V73.9062H17.5V81.875Z" fill="#193651"/>
<path d="M23.75 73.9062H22.6563V81.875H23.75V73.9062Z" fill="white"/>
<path d="M27.8125 73.9062H25.1562V81.875H27.8125V73.9062Z" fill="white"/>
<path d="M64.0311 73.7656H62.9375V81.7344H64.0311V73.7656Z" fill="white"/>
<path d="M61.5626 73.7656H58.9063V81.7344H61.5626V73.7656Z" fill="white"/>
<path d="M70.6249 61.0937H15.9374V72.1875H70.6249V61.0937Z" fill="#F16051"/>
<path d="M70.6249 73.7501H15.9374C14.9998 73.7501 14.3749 73.1251 14.3749 72.1875V61.0937C14.3749 60.1561 14.9998 59.5311 15.9374 59.5311H70.6249C71.5625 59.5311 72.1875 60.1561 72.1875 61.0937V72.1875C72.1875 73.1251 71.5625 73.7501 70.6249 73.7501ZM17.5 70.6249H69.0625V62.6561H17.5C17.5 62.6563 17.5 70.6249 17.5 70.6249Z" fill="#193651"/>
<path d="M23.75 62.6563H22.6563V70.6251H23.75V62.6563Z" fill="white"/>
<path d="M27.8125 62.6563H25.1562V70.6251H27.8125V62.6563Z" fill="white"/>
<path d="M64.0311 62.7812H62.9375V70.75H64.0311V62.7812Z" fill="white"/>
<path d="M61.5626 62.7812H58.9063V70.75H61.5626V62.7812Z" fill="white"/>
<path d="M93.7501 76.25H75.3126C72.6564 76.25 70.6251 78.2813 70.6251 80.9376V83.2813H98.4376V80.9376C98.4374 78.4374 96.4061 76.25 93.7501 76.25Z" fill="white"/>
<path d="M93.7501 74.6875H75.3126C71.8751 74.6875 69.0627 77.5 69.0627 80.9374V83.2811C69.0627 84.2187 69.6877 84.8437 70.6253 84.8437H98.4378C99.3754 84.8437 100 84.2187 100 83.2811V80.9374C100 77.5 97.1874 74.6875 93.7501 74.6875ZM96.875 81.875H72.1875V81.0937C72.1875 79.375 73.5938 77.9687 75.3125 77.9687H93.7499C95.4685 77.9687 96.8748 79.375 96.8748 81.0937V81.875H96.875Z" fill="#193651"/>
<path d="M82.0313 77.8124C81.25 77.6561 80.7813 76.7187 80.9376 75.9374L89.5314 44.0624L57.1874 11.4062C56.5624 10.7812 56.5624 9.8436 57.1874 9.21861C57.8124 8.59361 58.75 8.59361 59.375 9.21861L92.3438 42.4998C92.8125 42.9685 92.8125 43.4374 92.8125 44.0624L83.9063 76.7185C83.5937 77.5 82.8126 77.9687 82.0313 77.8124Z" fill="#193651"/>
<path d="M33.4375 30.7812H30.3125V33.5938H33.4375V30.7812Z" fill="#193651"/>
<path d="M33.2545 41.4991L35.9608 39.9367L34.5546 37.5012L31.8483 39.0636L33.2545 41.4991Z" fill="#193651"/>
<path d="M39.6075 46.9687L41.1706 44.2628L38.7352 42.8559L37.1721 45.5618L39.6075 46.9687Z" fill="#193651"/>
<path d="M47.9688 45.3125H45.1562V48.4375H47.9688V45.3125Z" fill="#193651"/>
<path d="M65.1562 8.12492L58.4374 15.0001L35.0001 22.3437L56.4061 43.75L63.9063 20.3124L70.6249 13.5938L65.1562 8.12492Z" fill="#FDBF5E"/>
<path d="M56.4061 45.3125C55.9374 45.3125 55.6248 45.1562 55.3124 44.8439L33.9062 23.4376C33.5936 23.125 33.4375 22.5 33.4375 22.0313C33.5938 21.5626 33.9062 21.0937 34.5312 20.9376L57.4998 13.7501L64.0624 7.03123C64.6874 6.40624 65.6249 6.40624 66.2499 7.03123L71.7188 12.5001C72.0314 12.8127 72.1875 13.1251 72.1875 13.5938C72.1875 14.0625 72.0312 14.3751 71.7188 14.6875L65.1562 21.25L57.9687 44.2187C57.8124 44.6874 57.3437 45.1562 56.875 45.3123C56.7187 45.3125 56.5624 45.3125 56.4061 45.3125ZM37.9687 22.9687L55.7811 40.7811L62.3437 19.8435C62.3437 19.5309 62.5 19.3748 62.6563 19.2185L68.2812 13.5936L65.1562 10.4686L59.5313 16.0935C59.375 16.2498 59.0626 16.4061 58.9063 16.4061L37.9687 22.9687Z" fill="#193651"/>
<path d="M54.3751 21.5626L44.0626 24.8437L53.9062 34.6875L57.1874 24.375L54.3751 21.5626Z" fill="white"/>
<path d="M40.4687 27.9688C37.6561 30.7814 37.6561 35.4688 40.4687 38.2813C43.2813 41.0939 47.9686 41.0939 50.7812 38.2813L40.4687 27.9688Z" fill="white"/>
<path d="M45.6249 42.0313C43.2813 42.0313 41.0937 41.0937 39.375 39.375C37.6563 37.6563 36.7187 35.4687 36.7187 33.1251C36.7187 30.7814 37.6563 28.5938 39.375 26.8751C40 26.2501 40.9376 26.2501 41.5626 26.8751L51.8751 37.1876C52.1877 37.5002 52.3438 37.8126 52.3438 38.2813C52.3438 38.75 52.1875 39.0626 51.8751 39.375C50.1562 41.0937 47.9688 42.0313 45.6249 42.0313ZM40.625 30.3125C40.1563 31.0938 39.8437 32.1875 39.8437 33.1251C39.8437 34.6877 40.4687 36.0937 41.5624 37.1876C43.4374 38.9063 46.2499 39.3752 48.4373 38.1252L40.625 30.3125Z" fill="#193651"/>
<path d="M91.2499 48.1249C93.7524 48.1249 95.7812 46.0962 95.7812 43.5937C95.7812 41.0911 93.7524 39.0624 91.2499 39.0624C88.7473 39.0624 86.7186 41.0911 86.7186 43.5937C86.7186 46.0962 88.7473 48.1249 91.2499 48.1249Z" fill="white"/>
<path d="M91.2499 49.6875C87.9686 49.6875 85.156 47.0312 85.156 43.5937C85.156 40.3124 87.8123 37.4998 91.2499 37.4998C94.5312 37.4998 97.3437 40.1561 97.3437 43.5937C97.3437 46.8749 94.5312 49.6875 91.2499 49.6875ZM91.2499 40.625C89.6873 40.625 88.2812 41.875 88.2812 43.5937C88.2812 45.1562 89.5312 46.5623 91.2499 46.5623C92.8125 46.5623 94.2186 45.3123 94.2186 43.5937C94.2188 42.0313 92.8125 40.625 91.2499 40.625Z" fill="#193651"/>
</g>
<defs>
<clipPath id="clip0">
<rect width="100" height="100" fill="white"/>
</clipPath>
</defs>
</svg>
